<svg width="18" height="18" viewBox="0 0 18 18" fill="none" xmlns="http://www.w3.org/2000/svg">
<path d="M13.1667 2.50001H16.5C16.721 2.50001 16.933 2.58781 17.0893 2.74409C17.2455 2.90037 17.3333 3.11233 17.3333 3.33334V16.6667C17.3333 16.8877 17.2455 17.0997 17.0893 17.2559C16.933 17.4122 16.721 17.5 16.5 17.5H1.5C1.27898 17.5 1.06702 17.4122 0.910742 17.2559C0.754461 17.0997 0.666664 16.8877 0.666664 16.6667V3.33334C0.666664 3.11233 0.754461 2.90037 0.910742 2.74409C1.06702 2.58781 1.27898 2.50001 1.5 2.50001H4.83333V0.833344H6.5V2.50001H11.5V0.833344H13.1667V2.50001ZM2.33333 7.50001V15.8333H15.6667V7.50001H2.33333ZM4 9.16668H5.66666V10.8333H4V9.16668ZM4 12.5H5.66666V14.1667H4V12.5ZM7.33333 9.16668H14V10.8333H7.33333V9.16668ZM7.33333 12.5H11.5V14.1667H7.33333V12.5Z" fill="#52525B"/>
</svg>
