<svg width="18" height="18" viewBox="0 0 18 18" fill="none" xmlns="http://www.w3.org/2000/svg">
<path d="M0.869164 5.71166L8.575 1.09166C8.70451 1.01395 8.85271 0.9729 9.00375 0.9729C9.15479 0.9729 9.30298 1.01395 9.4325 1.09166L17.1308 5.71249C17.1926 5.7495 17.2437 5.80189 17.2792 5.86455C17.3147 5.9272 17.3333 5.99798 17.3333 6.06999V16.6667C17.3333 16.8877 17.2455 17.0996 17.0893 17.2559C16.933 17.4122 16.721 17.5 16.5 17.5H1.5C1.27898 17.5 1.06702 17.4122 0.910742 17.2559C0.754461 17.0996 0.666664 16.8877 0.666664 16.6667V6.06916C0.666649 5.99715 0.685296 5.92637 0.720785 5.86371C0.756275 5.80106 0.807397 5.74867 0.869164 5.71166ZM14.2883 6.86999L9.05083 11.4025L3.70583 6.86499L2.6275 8.13499L9.06083 13.5975L15.3783 8.13083L14.2883 6.86999Z" fill="white"/>
</svg>
